<svg xmlns="http://www.w3.org/2000/svg" xmlns:xlink="http://www.w3.org/1999/xlink" width="500" zoomAndPan="magnify" viewBox="0 0 375 374.999991" height="500" preserveAspectRatio="xMidYMid meet" version="1.0"><defs><g/></defs><g fill="#ffffff" fill-opacity="1"><g transform="translate(52.752918, 284.78888)"><g><path d="M 87.859375 -23.6875 L 87.859375 -54.84375 L 62.828125 -4.65625 C 62.660156 -4.164062 62.289062 -3.921875 61.71875 -3.921875 L 46.625 -3.921875 C 45.96875 -3.921875 45.5625 -4.164062 45.40625 -4.65625 L 18.78125 -56.203125 L 18.78125 -1.109375 C 18.78125 -0.367188 18.328125 0 17.421875 0 L 1.234375 0 C 0.410156 0 0 -0.367188 0 -1.109375 L 0 -97.0625 C 0 -97.789062 0.410156 -98.15625 1.234375 -98.15625 L 17.671875 -98.15625 C 18.328125 -98.15625 18.734375 -97.910156 18.890625 -97.421875 L 54.109375 -25.515625 L 87.609375 -97.421875 C 87.929688 -97.910156 88.378906 -98.15625 88.953125 -98.15625 L 105.15625 -98.15625 C 106.050781 -98.15625 106.5 -97.789062 106.5 -97.0625 L 106.5 -23.6875 Z M 87.859375 -23.6875 "/></g></g></g><g fill="#ffffff" fill-opacity="1"><g transform="translate(164.651175, 284.78888)"><g><path d="M 77.0625 -1.46875 C 77.21875 -1.144531 77.171875 -0.816406 76.921875 -0.484375 C 76.679688 -0.160156 76.359375 0 75.953125 0 L 59.015625 0 C 58.441406 0 58.078125 -0.242188 57.921875 -0.734375 L 38.53125 -55.46875 L 19.390625 -0.734375 C 19.304688 -0.242188 18.894531 0 18.15625 0 L 1.34375 0 C 0.769531 0 0.378906 -0.160156 0.171875 -0.484375 C -0.0234375 -0.816406 -0.0390625 -1.144531 0.125 -1.46875 L 37.296875 -97.421875 C 37.460938 -97.910156 37.875 -98.15625 38.53125 -98.15625 C 39.1875 -98.15625 39.59375 -97.910156 39.75 -97.421875 Z M 77.0625 -1.46875 "/></g></g></g><g fill="#ffffff" fill-opacity="1"><g transform="translate(245.630172, 284.78888)"><g><path d="M 74.84375 -80.125 L 56.078125 -80.125 C 53.703125 -80.207031 50.921875 -80.144531 47.734375 -79.9375 C 44.546875 -79.738281 41.273438 -79.125 37.921875 -78.09375 C 34.566406 -77.070312 31.4375 -75.457031 28.53125 -73.25 C 25.625 -71.039062 23.289062 -67.972656 21.53125 -64.046875 C 19.769531 -60.117188 18.890625 -55.128906 18.890625 -49.078125 C 18.890625 -41.304688 20.503906 -35.066406 23.734375 -30.359375 C 26.972656 -25.660156 31.394531 -22.328125 37 -20.359375 C 42.601562 -18.398438 48.960938 -17.585938 56.078125 -17.921875 L 56.078125 -42.453125 L 37.171875 -42.453125 L 37.171875 -61.234375 L 74.84375 -61.234375 L 74.84375 -1.109375 C 74.84375 -0.367188 74.394531 0 73.5 0 L 57.546875 0 C 52.722656 0 47.671875 -0.328125 42.390625 -0.984375 C 37.117188 -1.640625 31.96875 -2.90625 26.9375 -4.78125 C 21.90625 -6.664062 17.363281 -9.40625 13.3125 -13 C 9.257812 -16.601562 6.023438 -21.347656 3.609375 -27.234375 C 1.203125 -33.128906 0 -40.410156 0 -49.078125 C 0 -57.503906 1.179688 -64.597656 3.546875 -70.359375 C 5.921875 -76.128906 9.132812 -80.832031 13.1875 -84.46875 C 17.238281 -88.113281 21.757812 -90.9375 26.75 -92.9375 C 31.738281 -94.945312 36.890625 -96.316406 42.203125 -97.046875 C 47.523438 -97.785156 52.640625 -98.15625 57.546875 -98.15625 L 73.5 -98.15625 C 74.394531 -98.15625 74.84375 -97.789062 74.84375 -97.0625 Z M 74.84375 -80.125 "/></g></g></g><g fill="#ffffff" fill-opacity="1"><g transform="translate(56.029598, 163.920114)"><g><path d="M 75.671875 -1.796875 C 75.859375 -1.335938 75.832031 -0.921875 75.59375 -0.546875 C 75.363281 -0.179688 74.972656 0 74.421875 0 L 54.609375 0 C 53.867188 0 53.40625 -0.273438 53.21875 -0.828125 L 32.984375 -44.765625 L 21.0625 -44.765625 L 21.0625 -1.25 C 21.0625 -0.414062 20.554688 0 19.546875 0 L 1.390625 0 C 0.460938 0 0 -0.414062 0 -1.25 L 0 -65.140625 L 37.28125 -65.140625 C 38.382812 -65.140625 39.859375 -65.226562 41.703125 -65.40625 C 43.554688 -65.59375 45.382812 -66.101562 47.1875 -66.9375 C 48.988281 -67.769531 50.515625 -69.039062 51.765625 -70.75 C 53.015625 -72.457031 53.640625 -74.835938 53.640625 -77.890625 C 53.640625 -80.941406 52.96875 -83.34375 51.625 -85.09375 C 50.28125 -86.851562 48.640625 -88.125 46.703125 -88.90625 C 44.765625 -89.6875 42.914062 -90.191406 41.15625 -90.421875 C 39.40625 -90.660156 38.113281 -90.78125 37.28125 -90.78125 L 0 -90.78125 L 0 -109.625 C 0 -110.457031 0.460938 -110.875 1.390625 -110.875 L 37.28125 -110.875 C 38.570312 -110.875 40.648438 -110.757812 43.515625 -110.53125 C 46.378906 -110.300781 49.585938 -109.675781 53.140625 -108.65625 C 56.703125 -107.644531 60.125 -105.984375 63.40625 -103.671875 C 66.6875 -101.359375 69.390625 -98.125 71.515625 -93.96875 C 73.640625 -89.8125 74.703125 -84.453125 74.703125 -77.890625 C 74.703125 -72.253906 73.773438 -67.472656 71.921875 -63.546875 C 70.078125 -59.617188 67.609375 -56.40625 64.515625 -53.90625 C 61.421875 -51.414062 58.023438 -49.476562 54.328125 -48.09375 C 57.835938 -40.238281 61.414062 -32.476562 65.0625 -24.8125 C 68.71875 -17.144531 72.253906 -9.472656 75.671875 -1.796875 Z M 75.671875 -1.796875 "/></g></g></g><g fill="#ffffff" fill-opacity="1"><g transform="translate(135.719726, 163.920114)"><g><path d="M 42.125 -100.484375 C 49.519531 -100.484375 55.363281 -98.609375 59.65625 -94.859375 C 63.957031 -91.117188 66.109375 -85.878906 66.109375 -79.140625 C 66.109375 -73.316406 64.238281 -68.367188 60.5 -64.296875 C 56.757812 -60.234375 52.023438 -56.539062 46.296875 -53.21875 L 73.03125 -27.4375 C 75.4375 -30.300781 77.398438 -33.601562 78.921875 -37.34375 C 80.453125 -41.09375 81.722656 -45.140625 82.734375 -49.484375 L 95.078125 -49.484375 C 93.597656 -43.472656 91.75 -37.945312 89.53125 -32.90625 C 87.3125 -27.875 84.445312 -23.46875 80.9375 -19.6875 L 101.171875 0 L 84.6875 0 L 72.625 -11.640625 C 68.28125 -7.765625 63.425781 -4.625 58.0625 -2.21875 C 52.707031 0.1875 46.195312 1.390625 38.53125 1.390625 C 28.914062 1.390625 21.3125 -0.960938 15.71875 -5.671875 C 10.132812 -10.390625 7.34375 -17.09375 7.34375 -25.78125 C 7.34375 -32.800781 9.257812 -38.484375 13.09375 -42.828125 C 16.925781 -47.171875 22.125 -51.191406 28.6875 -54.890625 C 25.726562 -58.210938 22.976562 -61.765625 20.4375 -65.546875 C 17.894531 -69.335938 16.625 -73.773438 16.625 -78.859375 C 16.625 -85.609375 18.890625 -90.898438 23.421875 -94.734375 C 27.953125 -98.566406 34.1875 -100.484375 42.125 -100.484375 Z M 41.71875 -90.5 C 37.832031 -90.5 34.664062 -89.484375 32.21875 -87.453125 C 29.769531 -85.421875 28.546875 -82.601562 28.546875 -79 C 28.546875 -75.675781 29.421875 -72.601562 31.171875 -69.78125 C 32.929688 -66.96875 35.476562 -63.847656 38.8125 -60.421875 C 44.257812 -63.566406 48.160156 -66.523438 50.515625 -69.296875 C 52.867188 -72.066406 54.046875 -75.347656 54.046875 -79.140625 C 54.046875 -82.460938 52.9375 -85.1875 50.71875 -87.3125 C 48.507812 -89.4375 45.507812 -90.5 41.71875 -90.5 Z M 36.03125 -47.265625 C 31.039062 -44.304688 27.132812 -41.300781 24.3125 -38.25 C 21.5 -35.195312 20.09375 -31.175781 20.09375 -26.1875 C 20.09375 -21.113281 21.800781 -17.050781 25.21875 -14 C 28.644531 -10.945312 33.21875 -9.421875 38.9375 -9.421875 C 44.851562 -9.421875 49.910156 -10.390625 54.109375 -12.328125 C 58.316406 -14.273438 61.898438 -16.585938 64.859375 -19.265625 Z M 36.03125 -47.265625 "/></g></g></g><g fill="#ffffff" fill-opacity="1"><g transform="translate(237.168731, 163.920114)"><g><path d="M 75.671875 -1.796875 C 75.859375 -1.335938 75.832031 -0.921875 75.59375 -0.546875 C 75.363281 -0.179688 74.972656 0 74.421875 0 L 54.609375 0 C 53.867188 0 53.40625 -0.273438 53.21875 -0.828125 L 32.984375 -44.765625 L 21.0625 -44.765625 L 21.0625 -1.25 C 21.0625 -0.414062 20.554688 0 19.546875 0 L 1.390625 0 C 0.460938 0 0 -0.414062 0 -1.25 L 0 -65.140625 L 37.28125 -65.140625 C 38.382812 -65.140625 39.859375 -65.226562 41.703125 -65.40625 C 43.554688 -65.59375 45.382812 -66.101562 47.1875 -66.9375 C 48.988281 -67.769531 50.515625 -69.039062 51.765625 -70.75 C 53.015625 -72.457031 53.640625 -74.835938 53.640625 -77.890625 C 53.640625 -80.941406 52.96875 -83.34375 51.625 -85.09375 C 50.28125 -86.851562 48.640625 -88.125 46.703125 -88.90625 C 44.765625 -89.6875 42.914062 -90.191406 41.15625 -90.421875 C 39.40625 -90.660156 38.113281 -90.78125 37.28125 -90.78125 L 0 -90.78125 L 0 -109.625 C 0 -110.457031 0.460938 -110.875 1.390625 -110.875 L 37.28125 -110.875 C 38.570312 -110.875 40.648438 -110.757812 43.515625 -110.53125 C 46.378906 -110.300781 49.585938 -109.675781 53.140625 -108.65625 C 56.703125 -107.644531 60.125 -105.984375 63.40625 -103.671875 C 66.6875 -101.359375 69.390625 -98.125 71.515625 -93.96875 C 73.640625 -89.8125 74.703125 -84.453125 74.703125 -77.890625 C 74.703125 -72.253906 73.773438 -67.472656 71.921875 -63.546875 C 70.078125 -59.617188 67.609375 -56.40625 64.515625 -53.90625 C 61.421875 -51.414062 58.023438 -49.476562 54.328125 -48.09375 C 57.835938 -40.238281 61.414062 -32.476562 65.0625 -24.8125 C 68.71875 -17.144531 72.253906 -9.472656 75.671875 -1.796875 Z M 75.671875 -1.796875 "/></g></g></g><g fill="#ffffff" fill-opacity="1"><g transform="translate(140.802811, 322.165039)"><g><path d="M 12.8125 -7 L 8.375 -7 L 8.375 -9.046875 L 15 -9.046875 L 15 -0.8125 C 14.488281 -0.582031 13.578125 -0.351562 12.265625 -0.125 C 10.960938 0.101562 9.773438 0.21875 8.703125 0.21875 C 5.878906 0.21875 3.925781 -0.441406 2.84375 -1.765625 C 1.769531 -3.097656 1.234375 -5.363281 1.234375 -8.5625 C 1.234375 -11.582031 1.875 -13.804688 3.15625 -15.234375 C 4.445312 -16.660156 6.476562 -17.375 9.25 -17.375 C 10.1875 -17.375 11.085938 -17.347656 11.953125 -17.296875 C 12.816406 -17.253906 13.519531 -17.1875 14.0625 -17.09375 L 14.0625 -15.046875 C 13.34375 -15.117188 12.554688 -15.171875 11.703125 -15.203125 C 10.859375 -15.242188 10.039062 -15.265625 9.25 -15.265625 C 7.175781 -15.265625 5.710938 -14.753906 4.859375 -13.734375 C 4.015625 -12.722656 3.59375 -11 3.59375 -8.5625 C 3.59375 -7.363281 3.660156 -6.359375 3.796875 -5.546875 C 3.941406 -4.734375 4.164062 -4.082031 4.46875 -3.59375 C 4.832031 -2.976562 5.347656 -2.535156 6.015625 -2.265625 C 6.691406 -2.003906 7.675781 -1.875 8.96875 -1.875 C 9.476562 -1.875 10.078125 -1.914062 10.765625 -2 C 11.460938 -2.082031 12.144531 -2.195312 12.8125 -2.34375 Z M 12.8125 -7 "/></g></g></g><g fill="#ffffff" fill-opacity="1"><g transform="translate(157.053179, 322.165039)"><g><path d="M 12.4375 -2.1875 L 12.4375 0 L 1.96875 0 L 1.96875 -17.09375 L 4.28125 -17.09375 L 4.28125 -2.1875 Z M 12.4375 -2.1875 "/></g></g></g><g fill="#ffffff" fill-opacity="1"><g transform="translate(169.922592, 322.165039)"><g><path d="M 16.46875 -8.59375 C 16.46875 -5.476562 15.867188 -3.226562 14.671875 -1.84375 C 13.484375 -0.46875 11.546875 0.21875 8.859375 0.21875 C 5.972656 0.21875 3.976562 -0.421875 2.875 -1.703125 C 1.78125 -2.984375 1.234375 -5.28125 1.234375 -8.59375 C 1.234375 -11.675781 1.832031 -13.910156 3.03125 -15.296875 C 4.226562 -16.679688 6.171875 -17.375 8.859375 -17.375 C 11.753906 -17.375 13.742188 -16.734375 14.828125 -15.453125 C 15.921875 -14.171875 16.46875 -11.882812 16.46875 -8.59375 Z M 4.390625 -3.65625 C 4.734375 -3.03125 5.238281 -2.59375 5.90625 -2.34375 C 6.582031 -2.09375 7.566406 -1.96875 8.859375 -1.96875 C 10.878906 -1.96875 12.257812 -2.453125 13 -3.421875 C 13.75 -4.390625 14.125 -6.113281 14.125 -8.59375 C 14.125 -9.820312 14.054688 -10.832031 13.921875 -11.625 C 13.796875 -12.414062 13.597656 -13.054688 13.328125 -13.546875 C 12.984375 -14.171875 12.476562 -14.613281 11.8125 -14.875 C 11.15625 -15.132812 10.171875 -15.265625 8.859375 -15.265625 C 6.828125 -15.265625 5.4375 -14.773438 4.6875 -13.796875 C 3.945312 -12.816406 3.578125 -11.082031 3.578125 -8.59375 C 3.578125 -7.351562 3.640625 -6.335938 3.765625 -5.546875 C 3.890625 -4.753906 4.097656 -4.125 4.390625 -3.65625 Z M 4.390625 -3.65625 "/></g></g></g><g fill="#ffffff" fill-opacity="1"><g transform="translate(187.618026, 322.165039)"><g><path d="M 14.234375 -4.90625 C 14.234375 -3.164062 13.757812 -1.910156 12.8125 -1.140625 C 11.863281 -0.378906 10.347656 0 8.265625 0 L 1.96875 0 L 1.96875 -17.09375 L 8.234375 -17.09375 C 10.117188 -17.09375 11.460938 -16.773438 12.265625 -16.140625 C 13.066406 -15.503906 13.46875 -14.414062 13.46875 -12.875 C 13.46875 -11.757812 13.269531 -10.898438 12.875 -10.296875 C 12.488281 -9.703125 11.832031 -9.296875 10.90625 -9.078125 C 12.007812 -8.929688 12.835938 -8.515625 13.390625 -7.828125 C 13.953125 -7.140625 14.234375 -6.164062 14.234375 -4.90625 Z M 11.3125 -12.546875 C 11.3125 -13.484375 11.082031 -14.140625 10.625 -14.515625 C 10.175781 -14.890625 9.390625 -15.078125 8.265625 -15.078125 L 4.28125 -15.078125 L 4.28125 -9.734375 L 8.265625 -9.734375 C 9.347656 -9.734375 10.125 -9.953125 10.59375 -10.390625 C 11.070312 -10.828125 11.3125 -11.546875 11.3125 -12.546875 Z M 12 -5.046875 C 12 -6.066406 11.71875 -6.773438 11.15625 -7.171875 C 10.59375 -7.566406 9.628906 -7.765625 8.265625 -7.765625 L 4.28125 -7.765625 L 4.28125 -2.078125 L 8.265625 -2.078125 C 9.628906 -2.078125 10.59375 -2.289062 11.15625 -2.71875 C 11.71875 -3.15625 12 -3.929688 12 -5.046875 Z M 12 -5.046875 "/></g></g></g><g fill="#ffffff" fill-opacity="1"><g transform="translate(202.886824, 322.165039)"><g><path d="M 2.671875 0 L 0.21875 0 L 6.984375 -17.09375 L 9.375 -17.09375 L 16.0625 0 L 13.609375 0 L 12.046875 -4.109375 L 4.21875 -4.109375 Z M 8.125 -14.96875 C 7.945312 -14.332031 7.734375 -13.660156 7.484375 -12.953125 C 7.234375 -12.242188 6.984375 -11.535156 6.734375 -10.828125 L 4.984375 -6.15625 L 11.28125 -6.15625 L 9.546875 -10.828125 C 9.179688 -11.828125 8.894531 -12.632812 8.6875 -13.25 C 8.476562 -13.863281 8.289062 -14.4375 8.125 -14.96875 Z M 8.125 -14.96875 "/></g></g></g><g fill="#ffffff" fill-opacity="1"><g transform="translate(219.191719, 322.165039)"><g><path d="M 12.4375 -2.1875 L 12.4375 0 L 1.96875 0 L 1.96875 -17.09375 L 4.28125 -17.09375 L 4.28125 -2.1875 Z M 12.4375 -2.1875 "/></g></g></g></svg>